<svg xmlns="http://www.w3.org/2000/svg" width="512" height="512"><path fill-opacity=".016" d="M0 256.002v256.002l256.25-.252 256.25-.252.252-255.75L513.004 0H0v256.002m.492.498c0 140.8.116 198.251.258 127.67.142-70.582.142-185.782 0-256C.608 57.951.492 115.7.492 256.5" fill="#1976D2" fill-rule="evenodd"/><path fill-opacity=".099" d="M45 16.869c-3.025.975-7.3 2.916-9.5 4.312-4.433 2.813-11.609 10.219-13.492 13.925-.669 1.317.874.051 3.428-2.813 5.624-6.306 14.503-10.954 23.603-12.354 4.169-.642 78.116-.896 208.461-.717l202 .278 5.782 2.334c10.888 4.395 18.489 11.996 22.884 22.884L490.5 50.5v416l-2.334 5.782c-4.307 10.671-11.354 17.901-21.759 22.325-5.483 2.332-5.62 2.465-1.907 1.861 10.932-1.781 24.108-12.887 28.653-24.151l2.347-5.817v-421l-3.304-6.757c-4.212-8.612-11.327-15.727-19.939-19.939L465.5 15.5 258 15.298c-196.247-.192-207.798-.106-213 1.571m183.643 13.159c-1.572.471-3.772 1.67-4.888 2.664C219.092 36.843 219 37.96 219 90.277c0 37.922-.289 49.724-1.25 50.998-1.602 2.125-12.628 6.986-14.347 6.326-1.02-.391-1.373-6.234-1.605-26.534l-.298-26.032-3.179-3.177c-2.651-2.65-3.916-3.166-7.621-3.11-5.631.085-10.245 2.457-12.74 6.551-1.824 2.99-1.953 5.216-1.956 33.826-.002 16.844-.303 32.144-.669 34-.46 2.332-2.726 5.441-7.335 10.063l-6.669 6.688-33.415.312c-37.077.346-37.852.477-42.013 7.111-4.228 6.74.195 15.777 8.685 17.746 2.152.499 13.669.918 25.595.931 20.391.023 21.718.137 22.284 1.919.711 2.24-3.793 13.046-6.192 14.855-1.274.961-13.076 1.25-50.998 1.25-53.534 0-53.791.024-58.109 5.514-2.927 3.72-2.927 10.252 0 13.972 4.299 5.466 4.783 5.514 55.645 5.514 53.673 0 50.187-.618 50.187 8.894 0 9.94 4.518 9.103-49.285 9.128-43.957.02-47.499.151-51.332 1.892C27.217 271.26 25 274.37 25 279.272c0 5.226 2.244 9.141 6.357 11.093C34.4 291.809 40.526 292 83.854 292c34.513 0 49.792.337 51.547 1.137 2.664 1.214 8.154 12.974 7.208 15.439-.381.994-5.996 1.365-24.302 1.608-26.442.351-28.499.804-32.347 7.115-2.472 4.053-2.473 7.348-.004 11.397 4.148 6.803 3.854 6.751 41.241 7.304l33.79.5 7.257 7.257 7.256 7.257.5 34.476.5 34.475 3.05 3.048c6.153 6.15 14.648 4.898 19.584-2.886l2.866-4.519v-23.304c0-22.489.069-23.304 1.962-23.304 3.465 0 13.013 4.085 14.042 6.008.622 1.161 1.004 20.39 1.018 51.176.02 45.833.153 49.604 1.873 53.392 1.833 4.034 6.674 7.424 10.605 7.424 3.369 0 8.514-3.287 10.734-6.856 2.254-3.624 2.269-3.906 2.766-52.144l.5-48.5 7.094-.291c5-.205 7.421.105 8.204 1.048.77.928 1.201 16.068 1.406 49.468.288 46.813.353 48.208 2.361 50.953 1.135 1.552 3.797 3.682 5.916 4.734 3.499 1.736 4.223 1.782 7.896.5 2.78-.971 4.995-2.767 7.084-5.747l3.039-4.335.5-51.158.5-51.158 4-1.884c3.719-1.752 11.279-3.379 11.674-2.512.096.21.433 11.737.75 25.615l.576 25.233 3.05 3.048c6.154 6.149 14.648 4.897 19.584-2.887l2.866-4.519v-66.166l6.527-6.471 6.527-6.471 33.723-.5c38.261-.567 38.109-.537 42.791-8.527 3.272-5.582 2.777-9.81-1.644-14.048l-3.052-2.925-26.436-.297c-30.143-.338-28.191.416-24.394-9.416 3.651-9.456-.58-8.787 55.601-8.787 55.009 0 54.183.093 58.758-6.64 3.602-5.3 3.492-10.328-.318-14.594l-2.918-3.266-50.832-.5-50.833-.5v-17l48.5-.5c53.422-.551 51.574-.323 56.467-6.955 3.72-5.042 3.51-10.915-.535-14.959l-3.068-3.069-53.109-.258-53.109-.259-3.246-8.311c-2.215-5.671-2.873-8.438-2.073-8.71.645-.219 11.523-.53 24.173-.691 26.312-.334 27.585-.664 32.068-8.315 3.272-5.582 2.777-9.81-1.645-14.048l-3.052-2.925-34.756-.297-34.756-.298-7.647-7.702-7.646-7.703-.283-34.732-.283-34.732-3.179-3.177c-2.651-2.651-3.916-3.167-7.621-3.111-5.631.085-10.245 2.457-12.74 6.551-1.785 2.927-1.954 5.169-1.972 26.201-.01 12.65-.412 23.621-.893 24.381-.724 1.142-2.143.943-8.235-1.16l-7.36-2.54-.5-52.84c-.461-48.734-.64-53.047-2.299-55.49-2.482-3.655-6.795-5.251-11.962-4.426-5.354.854-8.224 2.728-10.468 6.834-1.605 2.936-1.818 7.799-2.271 51.741l-.5 48.5-6.971.689c-4.455.44-7.433.305-8.25-.373-1.007-.835-1.279-11.678-1.279-51.038V35.8l-3.4-3.4c-3.583-3.583-6.893-4.189-12.957-2.372M233 164.877c-28.472 6.212-54.38 26.835-66.052 52.578-5.645 12.449-7.37 21.475-7.366 38.545.003 16.685 1.129 23.347 6.056 35.853 9.719 24.671 31.641 46.269 55.856 55.031C233.475 351.22 243.47 353 255.83 353c41.513 0 78.984-29.853 89.744-71.5 2.094-8.104 2.589-12.37 2.612-22.5.06-26.475-8.29-47.66-26.16-66.371-12.423-13.008-25.644-21.128-42.738-26.248-11.992-3.592-33.515-4.292-46.288-1.504m-20.868 50.201c-13.083 2.571-22.8 12.715-27.224 28.422-2.06 7.316-1.797 23.683.492 30.5 4.894 14.58 14.553 24.284 27.421 27.548 13.09 3.321 24.55-1.618 35.201-15.17 2.756-3.508 5.628-6.378 6.382-6.378.754 0 3.858 3.078 6.898 6.841 9.098 11.261 18.767 15.975 30.569 14.904C310.636 300.044 324 281.394 324 256.908c0-19.67-8.429-34.344-23.575-41.044-6.484-2.868-19.764-2.327-26.425 1.077-6.713 3.431-12.198 8.248-16.493 14.484-2.111 3.066-4.162 5.575-4.556 5.575-.394 0-2.907-2.988-5.584-6.64-10.016-13.663-20.449-18.188-35.235-15.282M285 235.637c-4.099 1.6-9.204 6.069-12.772 11.182-5.721 8.196-8.478 14.051-7.83 16.63.961 3.83 8.45 11.33 14.051 14.07 10.809 5.288 21.541 2.853 28.007-6.354 2.69-3.832 3.08-5.284 3.354-12.5.263-6.957-.033-8.822-2-12.607-3.581-6.886-8.647-10.373-15.575-10.72-3.154-.158-6.41-.023-7.235.299m-73.352 1.33c-11.317 3.628-16.48 13.89-13.708 27.244 2.154 10.374 12.775 19.003 21.399 17.385 5.39-1.011 11.344-6.049 16.521-13.978 8.286-12.694 8.66-15.159 3.279-21.652-5.985-7.222-19.367-11.603-27.491-8.999m243.621 260.726c.973.254 2.323.237 3-.037.677-.274-.119-.481-1.769-.461-1.65.02-2.204.244-1.231.498" fill="#1976D2" fill-rule="evenodd"/><path fill-opacity=".425" d="M230.388 29.934c-1.161.494-3.074 2.123-4.25 3.618C224.015 36.25 224 36.648 224 89.001v52.731l-6.25 2.262c-3.437 1.245-8.387 3.337-11 4.651l-4.75 2.389v-26.049c0-27.951-.469-31.099-5.117-34.354-3.242-2.271-9.055-2.07-12.224.423-1.436 1.129-3.083 3.808-3.661 5.952-.638 2.371-1.019 16.407-.971 35.814l.079 31.915-8.035 8.132-8.035 8.133h-69.19l-2.923 2.923c-4.367 4.367-4.3 10.017.171 14.577l2.941 3 27.551.296c15.153.162 27.407.638 27.232 1.057-.175.419-2.081 5.348-4.236 10.954L141.664 224H35.8l-3.4 3.4c-2.641 2.641-3.4 4.225-3.4 7.1s.759 4.459 3.4 7.1l3.4 3.4h102.08v22H88.408c-54.297 0-54.833.054-57.842 5.872C29.705 274.538 29 276.845 29 278c0 2.934 2.65 7.742 4.945 8.97 1.247.668 19.857 1.03 52.924 1.03 49.996 0 56.11.351 56.148 3.225.009.701 1.562 5.087 3.452 9.746 2.529 6.236 3.118 8.672 2.233 9.234-.661.421-13.049.771-27.529.78L94.846 311l-2.923 2.923c-4.367 4.367-4.3 10.017.171 14.577l2.942 3 34.732.283 34.732.283 7.703 7.646 7.702 7.647.298 34.802.297 34.803 3.247 3.245c4.566 4.565 9.94 4.565 14.506.001l3.247-3.245.296-27.572c.225-21.046.58-27.443 1.5-27.028 6.289 2.838 18.462 7.605 19.454 7.618.984.013 1.25 11.206 1.25 52.583 0 36.745.336 53.223 1.117 54.75 1.846 3.609 5.154 5.638 9.233 5.662 3.061.017 4.546-.674 7.25-3.378l3.4-3.4-.001-50.85V374.5H266.946l.277 51.333.277 51.332 3.266 2.918c5.401 4.824 12.892 3.538 16.117-2.767.781-1.527 1.117-18.005 1.117-54.75 0-41.372.266-52.572 1.25-52.593.688-.015 5.611-1.757 10.942-3.87l9.692-3.844.308 27.353.308 27.353 3.247 3.245c4.566 4.564 9.94 4.564 14.506-.001l3.247-3.245.297-34.803.298-34.802 7.702-7.647 7.703-7.646 34.686-.283 34.685-.283 2.966-2.842c3.566-3.419 4.434-7.073 2.678-11.277-2.631-6.296-3.077-6.381-33.625-6.381h-27.664l3.851-8.933c2.118-4.913 4.141-10.088 4.495-11.5l.645-2.567h52.957c34.409 0 53.631-.361 54.881-1.03 4.482-2.398 6.308-10.58 3.314-14.853-3.512-5.014-4.669-5.117-57.657-5.117H374.36v-22H476.2l3.4-3.4c4.73-4.73 4.73-9.47 0-14.2l-3.4-3.4H370.355l-3.522-9.25c-1.937-5.088-3.857-10.017-4.267-10.954-.69-1.579 1.285-1.726 26.781-2l27.525-.296 2.965-2.842c3.566-3.419 4.434-7.073 2.678-11.277-2.686-6.428-2.391-6.381-40.206-6.381h-34.246l-8.031-8.151-8.032-8.151v-32.881c0-25.858-.298-33.594-1.394-36.218-4.413-10.561-18.386-8.133-20.076 3.488-.353 2.427-.504 14.988-.336 27.913l.306 23.5-11.25-4.482-11.25-4.483V35.8l-3.4-3.4c-3.782-3.782-6.964-4.297-11.633-1.883C266.939 33.634 267 33.045 267 87.95V138H245.053l-.277-51.478-.276-51.478-2.554-2.553c-2.781-2.78-8.213-3.983-11.558-2.557M236 160.919c-10.972 2.45-15.58 4.162-25.702 9.547-24.321 12.937-41.532 34.662-48.752 61.534-2.67 9.94-3.223 32.315-1.062 43 3.713 18.364 12.07 34.412 24.864 47.749 4.484 4.673 10.852 10.414 14.152 12.757 19.426 13.793 44.09 20.228 67.032 17.491 39.709-4.738 71.378-31.291 83.148-69.715 2.468-8.054 2.696-10.232 2.755-26.282.053-14.185-.294-18.826-1.828-24.5-7.794-28.826-26.242-51.228-52.657-63.941-13.814-6.648-22.692-8.71-39.45-9.162-11.139-.3-15.737.011-22.5 1.522m44.882 54.4c-8.956 3.352-16.459 10.413-22.23 20.919-1.734 3.156-3.377 5.731-3.652 5.722-.275-.009-2.053-2.591-3.951-5.738-4.941-8.194-12.754-16.135-18.549-18.856-6.944-3.259-17.042-3.262-24-.008-5.14 2.404-12.197 9.21-14.804 14.278-11.893 23.113-4.099 54.144 16.09 64.058 4.611 2.265 7.065 2.806 12.714 2.804 11.837-.005 20.947-6.039 29.941-19.832l4.941-7.578 5.213 7.787c9.304 13.897 17.479 19.135 29.833 19.115 14.533-.023 27.253-12.487 30.564-29.95 2.225-11.729.649-24.943-4.08-34.213-3.058-5.994-10.629-13.649-16.392-16.575-6.059-3.075-16.171-3.979-21.638-1.933m3.348 17.796c-5.642 2.793-11.007 9.237-16.737 20.105l-4.687 8.889 2.451 3.695c8.198 12.366 21.338 17.794 33.936 14.02 5.308-1.59 12.208-7.871 14.247-12.967 2.181-5.45 2.214-17.355.063-22.506-4.818-11.532-18.255-16.69-29.273-11.236m-70.236-.181c-11.173 3.399-16.932 11.781-16.972 24.702-.041 13.344 7.842 23.191 19.331 24.143 6.677.554 11.711-1.021 16.41-5.135 3.96-3.467 11.643-14.722 14.694-21.525 1.955-4.359 1.955-4.368-.121-7.992-6.097-10.641-22.319-17.546-33.342-14.193" fill="#1976D2" fill-rule="evenodd"/><path fill-opacity=".985" d="M230.963 30.381c-2.384.77-4.008 2.209-5.211 4.619-1.598 3.198-1.749 8.001-1.75 55.592L224 142.683l-4.25 1.258c-2.338.692-7.335 2.564-11.105 4.159-3.77 1.595-7.032 2.9-7.25 2.9-.217 0-.405-12.488-.417-27.75-.02-24.782-.207-27.978-1.75-29.883-4.362-5.384-10.04-5.755-14.828-.967l-3.4 3.4v68.744l-8.271 8.228-8.271 8.228H95.8l-3.4 3.4c-2.156 2.156-3.4 4.37-3.4 6.05 0 3.417 2.487 8.205 4.945 9.52 1.186.635 12.529 1.03 29.596 1.03 21.755 0 27.559.267 27.141 1.25-4.256 10.005-7.682 19.029-7.682 20.236 0 1.333-6.227 1.514-52.032 1.514-58.375 0-57.79-.064-60.581 6.617-1.326 3.174-1.353 4.192-.19 7.286 2.699 7.178 2.003 7.094 58.303 7.095l50 .002-.18 11.25-.18 11.25-51.548.5-51.548.5-2.722 2.723c-4.677 4.678-2.842 13.488 3.295 15.822 1.48.562 23.897.955 54.542.955 49.831 0 52.049.078 52.513 1.855.401 1.534 5.964 15.4 7.981 19.895.441.983-5.348 1.25-27.146 1.25H95.8l-3.4 3.4c-2.156 2.156-3.4 4.37-3.4 6.05 0 3.417 2.487 8.205 4.945 9.52 1.212.649 14.584 1.03 36.137 1.03h34.213l8.352 8.39 8.353 8.391v33.659c0 35.8.272 38.03 4.945 40.53 3.81 2.039 9.011 1.228 12.132-1.893l2.923-2.923v-28.077c0-15.442.243-28.077.54-28.077.297 0 2.434.966 4.748 2.147 2.315 1.181 7.135 3.17 10.711 4.42l6.501 2.274.5 53.007c.49 51.908.544 53.065 2.602 55.821 2.958 3.961 7.557 5.103 12.006 2.981 6.407-3.055 6.392-2.919 6.392-58.118V374h23v51.066c0 33.111.362 51.742 1.03 52.989 2.87 5.363 11.599 6.097 16.06 1.35l2.41-2.565.5-53.5.5-53.5 6.5-2.309c3.575-1.27 8.637-3.244 11.25-4.385l4.75-2.075v27.014c0 28.662.408 31.457 4.945 33.885 3.81 2.039 9.011 1.228 12.132-1.893l2.923-2.923v-69.125l8.514-8.515 8.515-8.514h69.125l2.923-2.923c4.906-4.907 3.553-12.731-2.761-15.96-1.45-.741-11.286-1.117-29.25-1.117-14.886 0-27.066-.243-27.066-.54 0-.297.967-2.434 2.149-4.75 1.182-2.315 3.136-7.135 4.342-10.71l2.194-6.5 53.577-.5 53.578-.5 2.565-2.41c4.699-4.415 4.359-11.162-.772-15.318-1.958-1.586-6.334-1.729-53.383-1.75L374 268v-23h49.532c54.363 0 54.893-.054 57.902-5.872 1.965-3.801 1.965-5.455 0-9.256-3.02-5.84-3.349-5.872-59.996-5.872-49.439 0-51.646-.079-52.11-1.855-.401-1.534-5.964-15.4-7.981-19.895-.441-.984 5.443-1.25 27.623-1.25h28.184l2.923-2.923c4.906-4.907 3.553-12.731-2.761-15.96-1.482-.758-13.07-1.117-36.022-1.117h-33.838l-8.228-8.271-8.228-8.271-.022-34.479c-.02-31.158-.189-34.684-1.75-36.612-4.362-5.384-10.04-5.755-14.828-.967l-3.4 3.4v27.6c0 15.18-.126 27.6-.28 27.6-.155 0-3.877-1.517-8.272-3.37-4.396-1.854-9.445-3.69-11.22-4.08l-3.228-.709V90.486c0-30.853-.392-53.388-.955-54.869-1.321-3.473-5.597-6.026-9.889-5.904-2.692.076-4.303.887-6.379 3.21L268 36.032V137.879l-11.502.31-11.502.311-.004-49c-.003-48.515-.384-54.92-3.412-57.434-2.571-2.133-7.038-2.842-10.617-1.685M243.5 159.119c-14.765 1.828-32.818 9.105-45.166 18.208-18.15 13.38-31.697 33.698-37.451 56.173-3.381 13.206-3.201 33.08.426 46.774 12.015 45.375 53.869 76.076 100.086 73.417 24.68-1.42 46.12-11.054 63.681-28.615 47.463-47.463 34.471-126.346-25.772-156.48-9.42-4.713-18.156-7.436-29.304-9.136-10.397-1.585-15.876-1.656-26.5-.341m40.844 55.912c-6.166 1.235-11.285 4.227-16.494 9.638-4.668 4.85-11.85 15.324-11.85 17.283 0 2.356-1.683.669-4.849-4.862-4.818-8.418-11.116-15.201-17.284-18.617-4.698-2.602-6.365-2.973-13.367-2.973-6.533 0-8.886.452-12.83 2.467-9.744 4.978-15.752 14.735-18.366 29.829-1.37 7.909-1.356 9.477.15 17.169 4.77 24.355 23.496 38.042 42.968 31.407 6.319-2.153 16.019-11.287 20.961-19.736l3.835-6.558 4.729 7.211c8.583 13.088 16.225 18.869 26.799 20.272 5.826.773 14.054-1.278 19.293-4.808 11.76-7.926 18.354-28.825 14.631-46.379-4.564-21.527-20.851-34.846-38.326-31.343m2.156 16.393c-5.601 2.039-14.125 11.591-19.504 21.86-4.253 8.119-4.385 8.624-2.974 11.356 2.768 5.357 11.214 12.912 16.415 14.684 6.979 2.378 16.861 2.194 22.248-.414 16.395-7.936 18.001-34.453 2.737-45.181-4.975-3.496-12.971-4.47-18.922-2.305m-76 2.476c-9.019 4.185-13.88 12.511-13.785 23.613.069 8.048 1.668 12.576 6.308 17.861 3.859 4.395 6.968 6.139 12.614 7.077 11.194 1.859 20.115-5.111 30.27-23.65 4.854-8.86 4.842-8.931-2.793-17.136-6.346-6.82-12.692-9.649-21.614-9.633-4.694.008-8.318.623-11 1.868" fill="#1976D2" fill-rule="evenodd"/></svg>