<svg xmlns="http://www.w3.org/2000/svg" width="256" height="256"><path fill-opacity=".016" d="M0 128.004v128.004l128.25-.254 128.25-.254.254-127.75L257.008 0H0v128.004m.485.496c0 70.4.119 99.053.265 63.672.146-35.38.146-92.98 0-128C.604 29.153.485 58.1.485 128.5" fill="#1976D2" fill-rule="evenodd"/><path fill-opacity=".191" d="M124.226 49.75c-1.05 1.513-5.139 8.676-9.086 15.919l-7.177 13.17-.647 20.788-.647 20.789-3.494 4.542c-4.55 5.914-9.659 17.052-11.137 24.278-1.944 9.499.466 10.235 9.055 2.764l5.749-5h40.503l5.748 5c8.672 7.542 11.219 6.447 8.921-3.836-1.739-7.784-5.19-15.255-10.454-22.632l-4.443-6.226-.308-20.403L146.5 78.5l-8.82-15.75C132.829 54.087 128.247 47 127.498 47c-.749 0-2.221 1.237-3.272 2.75M57.425 90.019c-4.786 2.369-7.817 6.127-9.327 11.565-.704 2.538-1.089 18.963-1.092 46.666L47 191h-9.5c-9.333 0-9.5.042-9.5 2.375 0 5.017 1.384 8.855 4.214 11.685l2.94 2.94h183.814l3.17-2.832c2.684-2.398 3.242-3.7 3.64-8.5l.47-5.668H207v-44.532c0-48.378-.002-48.395-5.627-53.654-4.682-4.378-7.258-4.814-28.438-4.814H153v13h18.929c15.874 0 19.182.254 20.5 1.571 1.38 1.381 1.571 6.853 1.571 45V191h-43.198L148 194l-2.802 3h-35.352l-3-3-3-3H61v-43.8c0-32.733.303-44.103 1.2-45 .848-.848 6.711-1.2 20-1.2H101V88l-19.75.001c-17.792 0-20.154.201-23.825 2.018M113 155.95V160H125.121l-.311-3.75-.31-3.75-5.75-.3-5.75-.3v4.05m17 .05v4h12v-8h-12v4" fill="#1976D2" fill-rule="evenodd"/><path fill-opacity=".714" d="M116.679 63.785L108 79.662v39.424l-3.89 5.207c-5.337 7.145-8.922 14.613-11.065 23.048-2.924 11.514-1.556 12.212 8.146 4.159l6.627-5.5h38.459l6.856 5.609c10.179 8.328 11.817 6.479 7.18-8.109-2.23-7.016-5.432-13.126-10.208-19.484L146 118.554l-.039-20.027-.038-20.027-8.349-15c-5.765-10.358-8.947-15.092-10.282-15.296-1.563-.239-3.596 2.746-10.613 15.581M58.5 89.89c-4.628 2.136-7.917 5.422-9.433 9.425-.698 1.84-1.067 18.203-1.067 47.25V191H29v5.1c0 4.467.422 5.522 3.4 8.5l3.4 3.4h90.65c100.528 0 95.252.351 98.129-6.534.781-1.871 1.421-4.991 1.421-6.934V191h-19l-.022-44.25c-.025-50.459.032-50.066-8.073-55.434l-4.252-2.816-20.327-.324L154 87.853V101h18.8c13.289 0 19.152.352 20 1.2.897.897 1.2 12.267 1.2 45V191h-43.028l-2.903 3.25-2.902 3.25-14.9.338c-16.774.381-22.211-.577-24.681-4.347L103.954 191H60v-43.345c0-40.722.111-43.445 1.829-45 1.564-1.416 4.529-1.655 20.5-1.655H101V88l-19.25.022c-16.574.019-19.806.279-23.25 1.868m72.5 66.058V160H142.121l-.311-3.75-.31-3.75-5.25-.302-5.25-.303v4.053m-18 .552v3.5h11v-7h-11v3.5" fill="#1976D2" fill-rule="evenodd"/><path fill-opacity=".966" d="M125.238 49.25c-.554.688-4.547 7.775-8.873 15.75L108.5 79.5 108 100l-.5 20.5-3.654 4.701c-4.486 5.771-8.341 13.762-10.338 21.431-2.989 11.474-1.634 12.417 7.111 4.951L107.16 146h39.9l6.55 5.556c5.028 4.265 6.857 5.302 7.872 4.459 3.037-2.521-3.904-21.594-11.54-31.708L146 119.086V79.662l-8.654-15.831C132.586 55.124 128.141 48 127.468 48s-1.676.563-2.23 1.25M57.149 90.696c-1.843.908-4.543 3.452-6 5.653l-2.649 4.002-.289 45.325L47.923 191H29v3.532c0 1.943.659 5.109 1.464 7.036 2.828 6.77-1.569 6.493 98.624 6.198l90.076-.266 2.918-3.266c2.411-2.698 2.918-4.147 2.918-8.335v-5.069l-9.25.335-9.25.335-.5-46.178c-.486-44.885-.559-46.256-2.592-49-1.151-1.552-3.58-3.835-5.398-5.072-3.161-2.151-4.198-2.25-23.658-2.25H154v11h18.5c17.167 0 18.644.144 20.5 2 1.939 1.939 2 3.333 2 45.5V191h-43.954l-1.572 2.399c-2.732 4.17-5.949 4.763-23.959 4.42l-16.739-.319-2.711-3.25-2.711-3.25H60v-87.887l2.223-1.556c1.814-1.271 5.575-1.557 20.5-1.557H101V89l-20.25.023c-16.771.019-20.826.306-23.601 1.673M114 156.5v3.5h10v-7h-10v3.5m17-.5c0 2.933.111 3 5 3s5-.067 5-3-.111-3-5-3-5 .067-5 3" fill="#1976D2" fill-rule="evenodd"/></svg>